# xmcd
#
# Track frame offsets: 
#        150
#        3313
#        23769
#        36939
#        59313
#        76240
#        92020
#        108421
#        121119
#        132981
#
# Disc length: 1955 seconds
#
# Revision: 0
# Processed by: cddbd v1.5.1PL0 Copyright (c) Steve Scherf et al.
# Submitted via: ExactAudioCopy v0.95b3
#
DISCID=7207a10a
DTITLE=Ben Darvill - B. Darvill's Wild Wild West Show
DYEAR=1999
DGENRE=Blues
TTITLE0=Intro
TTITLE1=Only the Strong Survive
TTITLE2=Give it up old Joe
TTITLE3=In Love iwth the Furure
TTITLE4=Bad As Can Be
TTITLE5=You Makum' Fun of Me
TTITLE6=Another Pretty Love Song
TTITLE7=Back From the USA
TTITLE8=Lie Down Canyon
TTITLE9=Satan B. Gone
EXTD=
EXTT0=
EXTT1=
EXTT2=
EXTT3=
EXTT4=
EXTT5=
EXTT6=
EXTT7=
EXTT8=
EXTT9=
PLAYORDER=
